<?xml version="1.0" encoding="iso-8859-1"?>
<!-- Generator: Adobe Illustrator 19.0.0, SVG Export Plug-In . SVG Version: 6.00 Build 0)  -->
<svg version="1.1" id="Layer_1" xmlns="http://www.w3.org/2000/svg" xmlns:xlink="http://www.w3.org/1999/xlink" x="0px" y="0px"
	 viewBox="0 0 512 512" style="enable-background:new 0 0 512 512;" xml:space="preserve">
<g>
	<g>
		<path d="M143.61,349.659H93.659c-10.345,0-18.732,8.387-18.732,18.732c0,10.345,8.387,18.732,18.732,18.732h49.951
			c10.345,0,18.732-8.387,18.732-18.732C162.341,358.045,153.955,349.659,143.61,349.659z"/>
	</g>
</g>
<g>
	<g>
		<path d="M181.073,274.732H93.659c-10.345,0-18.732,8.387-18.732,18.732c0,10.345,8.387,18.732,18.732,18.732h87.415
			c10.345,0,18.732-8.387,18.732-18.732C199.805,283.119,191.418,274.732,181.073,274.732z"/>
	</g>
</g>
<g>
	<g>
		<path d="M143.61,199.805H93.659c-10.345,0-18.732,8.387-18.732,18.732c0,10.345,8.387,18.732,18.732,18.732h49.951
			c10.345,0,18.732-8.387,18.732-18.732C162.341,208.192,153.955,199.805,143.61,199.805z"/>
	</g>
</g>
<g>
	<g>
		<path d="M181.073,124.878H93.659c-10.345,0-18.732,8.387-18.732,18.732c0,10.345,8.387,18.732,18.732,18.732h87.415
			c10.345,0,18.732-8.387,18.732-18.732C199.805,133.265,191.418,124.878,181.073,124.878z"/>
	</g>
</g>
<g>
	<g>
		<path d="M493.268,49.951H256H18.732C8.387,49.951,0,58.338,0,68.683v374.634c0,10.345,8.387,18.732,18.732,18.732H256h237.268
			c10.345,0,18.732-8.387,18.732-18.732V143.646c0-0.067,0-0.136,0-0.205V68.683C512,58.338,503.613,49.951,493.268,49.951z
			 M237.268,218.505c0,0.066-0.001,0.131,0,0.195v205.885H37.463V87.415h199.805V218.505z M474.537,424.585H274.732V232.264
			l199.805-63.096V424.585z M474.537,129.882l-199.805,63.096V87.415h199.805V129.882z"/>
	</g>
</g>
<g>
</g>
<g>
</g>
<g>
</g>
<g>
</g>
<g>
</g>
<g>
</g>
<g>
</g>
<g>
</g>
<g>
</g>
<g>
</g>
<g>
</g>
<g>
</g>
<g>
</g>
<g>
</g>
<g>
</g>
</svg>
