<?xml version="1.0" encoding="iso-8859-1"?>
<!-- Generator: Adobe Illustrator 19.0.0, SVG Export Plug-In . SVG Version: 6.00 Build 0)  -->
<svg version="1.1" id="Layer_1" xmlns="http://www.w3.org/2000/svg" xmlns:xlink="http://www.w3.org/1999/xlink" x="0px" y="0px"
	 viewBox="0 0 512.001 512.001" style="enable-background:new 0 0 512.001 512.001;" xml:space="preserve">
<g>
	<g>
		<path d="M501.801,337.269h-5.943V147.518c0-28.246-22.98-51.227-51.227-51.227H67.369c-28.246,0-51.227,22.98-51.227,51.227
			v189.751h-5.943C4.567,337.269,0,341.836,0,347.468v14.131c0,29.837,24.274,54.111,54.111,54.111H457.89
			c29.837,0,54.111-24.274,54.111-54.111v-14.131C512,341.835,507.433,337.269,501.801,337.269z M36.541,147.518
			c0-16.998,13.83-30.828,30.828-30.828h377.263c16.998,0,30.828,13.83,30.828,30.828v189.751H36.541V147.518z M491.602,361.599
			c0,18.589-15.123,33.712-33.712,33.712H54.111c-18.589,0-33.712-15.123-33.712-33.712v-3.932h471.203V361.599z"/>
	</g>
</g>
<g>
	<g>
		<path d="M283.636,362.335h-55.271c-5.632,0-10.199,4.567-10.199,10.199s4.567,10.199,10.199,10.199h55.271
			c5.632,0,10.199-4.567,10.199-10.199S289.268,362.335,283.636,362.335z"/>
	</g>
</g>
<g>
	<g>
		<path d="M143.112,290.268c-3.984-3.983-10.44-3.983-14.424,0l-2.829,2.829c-3.983,3.983-3.983,10.441,0,14.425
			c1.992,1.991,4.602,2.987,7.212,2.987s5.22-0.996,7.212-2.987l2.829-2.829C147.095,300.71,147.095,294.252,143.112,290.268z"/>
	</g>
</g>
<g>
	<g>
		<path d="M367.698,145.064H316.24c-5.632,0-10.199,4.567-10.199,10.199c0,5.632,4.567,10.199,10.199,10.199h27.797l-66.191,66.191
			l-38.059-38.059c-3.984-3.982-10.44-3.982-14.425,0l-74.038,74.038c-3.983,3.983-3.983,10.441,0,14.425
			c1.992,1.991,4.602,2.987,7.212,2.987s5.22-0.996,7.212-2.987l66.826-66.826l38.059,38.059c1.913,1.912,4.507,2.987,7.212,2.987
			s5.299-1.075,7.212-2.987l72.44-72.441v25.873c0,5.632,4.567,10.199,10.199,10.199c5.632,0,10.199-4.567,10.199-10.199v-51.459
			C377.897,149.631,373.33,145.064,367.698,145.064z"/>
	</g>
</g>
<g>
</g>
<g>
</g>
<g>
</g>
<g>
</g>
<g>
</g>
<g>
</g>
<g>
</g>
<g>
</g>
<g>
</g>
<g>
</g>
<g>
</g>
<g>
</g>
<g>
</g>
<g>
</g>
<g>
</g>
</svg>
